<svg xmlns="http://www.w3.org/2000/svg" xmlns:xlink="http://www.w3.org/1999/xlink" viewBox="0 0 81.41 117.42"><defs><style>.cls-1{fill:url(#linear-gradient);}</style><linearGradient id="linear-gradient" y1="58.71" x2="81.41" y2="58.71" gradientUnits="userSpaceOnUse"><stop offset="0" stop-color="#ffbf00"/><stop offset="1" stop-color="#f90"/></linearGradient></defs><g id="Layer_2" data-name="Layer 2"><g id="Layer_1-2" data-name="Layer 1"><path class="cls-1" d="M41.26,61.61A53.3,53.3,0,0,1,81.41,79.8V25.42H66.08v-.15a25.27,25.27,0,1,0-50.53,0,.76.76,0,0,0,0,.15H0V58a44.49,44.49,0,0,0,50.77,34.5v8.11a54.18,54.18,0,0,1-7.26.51A53.35,53.35,0,0,1,0,78.63v38.79H81.41V96.7A44.45,44.45,0,0,0,35.22,71.86V62A52.26,52.26,0,0,1,41.26,61.61ZM22.54,25.27a18.28,18.28,0,1,1,36.55,0v.15H22.55C22.55,25.37,22.54,25.32,22.54,25.27Z"/></g></g></svg>